<?xml version="1.0" encoding="utf-8"?>
<!-- Uploaded to: SVG Repo, www.svgrepo.com, Generator: SVG Repo Mixer Tools -->
<svg width="800px" height="800px" viewBox="0 0 1024 1024" class="icon"  version="1.1" xmlns="http://www.w3.org/2000/svg"><path d="M778.752 318.976c-60.416-71.68-122.88-118.272-130.048-123.392-6.144-6.144-71.68-71.68-71.68-124.928v-33.28l-17.92 28.16c-1.024 1.536-100.352 155.648-167.424 225.792-52.736 55.296-174.08 196.608-161.28 315.392 14.848 136.192 107.52 204.8 276.48 204.8 14.848 0 30.208-0.512 45.568-1.536l-1.024 177.152h19.456l1.024-178.176c18.944 1.536 80.896 3.584 145.408-13.312 102.912-27.136 163.328-90.624 173.568-184.32 10.752-91.648-28.16-192.512-112.128-292.352zM320 742.4c-40.448-31.232-63.488-76.288-70.144-137.728-11.776-110.592 105.472-246.784 156.16-300.032 51.712-54.272 119.296-152.576 151.552-201.216l-2.048 271.872c-12.8-4.096-24.064-15.872-33.28-26.624v-1.024c1.024-9.216 2.56-17.92 3.584-27.136 0.512-4.608-4.096-8.192-8.192-8.192-5.12 0-7.68 3.584-8.192 8.192-0.512 4.608-1.024 9.216-1.536 13.312-12.288-12.8-24.576-25.088-36.864-37.888-7.168-7.68-18.944 4.096-11.776 11.776 18.432 18.432 36.352 37.376 54.784 55.808H501.76c-10.752 0-10.752 16.384 0 16.384h23.04c2.048 0 3.584-0.512 4.608-1.536 7.68 6.656 15.872 12.288 26.112 13.824l-1.024 135.168c-20.992-0.512-37.888-7.68-55.296-17.92-14.848-8.704-31.232-14.848-46.08-23.552-14.336-8.704-26.624-20.992-37.376-34.816 2.56-5.12 5.12-10.752 7.68-15.872 2.048-4.096 1.024-8.704-3.072-11.264-3.584-2.048-9.216-1.024-11.264 3.072l-4.608 9.216c-7.168-10.752-13.824-22.016-19.968-32.768-5.12-9.216-19.456-1.024-14.336 8.192 17.92 31.232 39.936 67.072 71.168 87.04-5.12 4.096-10.752 7.68-16.896 9.728-4.096 1.536-7.168 5.632-5.632 10.24 1.024 4.096 6.144 7.168 10.24 5.632 10.24-4.096 19.456-9.728 27.648-16.896 13.824 7.168 27.648 13.824 40.96 20.992 17.92 9.728 35.84 15.36 56.32 15.872l-1.024 145.92c-21.504-1.024-43.008 0-64.512-2.048l-12.288-1.536c1.024-11.776 1.536-24.064 2.56-35.84 0.512-10.752-15.872-10.24-16.384 0-0.512 10.752-1.536 21.504-2.048 32.256-13.824-4.096-26.624-10.24-38.912-17.92-39.424-24.064-69.12-60.416-100.352-93.696-7.168-7.68-18.944 4.096-11.776 11.776 23.552 25.088 46.592 51.712 72.704 73.728-7.68 2.048-15.36 3.584-22.528 5.632-10.24 2.56-6.144 18.432 4.096 15.872 10.752-2.56 20.992-5.12 31.744-7.68 1.024 0 2.048-0.512 2.56-1.024 6.144 4.608 12.8 9.216 19.968 12.8 19.456 11.264 40.96 18.944 63.488 22.016 23.552 3.072 47.616 1.536 71.68 2.56l-0.512 83.968c-103.936 6.144-182.272-10.24-232.448-48.64z m551.936-133.12c-9.728 85.504-62.976 141.824-158.72 167.424-62.976 16.896-124.928 13.824-140.8 12.8l0.512-111.616c18.944-9.216 42.496-11.264 62.464-16.896 19.968-5.632 38.912-12.288 57.856-20.992 5.632-2.56 11.264-5.632 16.896-8.192 7.68 4.608 16.384 5.12 25.088 6.144 12.8 1.536 25.088 3.072 37.888 4.096 10.752 0.512 10.24-15.872 0-16.384-10.24-0.512-19.968-1.536-30.208-3.072-4.608-0.512-9.728-1.024-14.848-2.048 20.992-13.312 39.936-29.696 55.808-49.664 6.656-8.192-5.12-19.968-11.776-11.776-24.576 30.72-56.832 53.248-93.184 68.608-11.776 5.12-24.064 9.728-36.864 13.312v-24.064c0-10.752-16.384-10.752-16.384 0v28.672c-2.048 0.512-4.608 1.024-6.656 2.048-15.36 4.096-31.744 6.144-46.592 11.776L573.44 473.088c34.816-2.048 69.632-9.216 100.864-23.552 0 0.512 0.512 0.512 0.512 0.512 9.728 8.704 20.48 14.848 33.28 18.432 10.24 3.072 14.336-12.8 4.096-15.872-8.192-2.56-15.872-6.144-22.528-11.264 17.408-9.728 33.792-22.528 47.616-37.888 7.168-7.68-4.608-19.456-11.776-11.776-22.528 26.624-51.712 43.52-83.968 53.76 2.048-4.608 4.096-9.216 6.656-13.824 5.12-9.216-9.216-17.408-14.336-8.192-4.608 8.704-8.704 17.92-12.288 27.136-15.36 3.584-31.232 5.632-47.616 6.656l0.512-110.592c32.256-12.288 72.192-23.04 93.696-50.688 6.144-8.192-7.68-16.384-14.336-8.192-8.192 10.752-19.968 16.896-32.256 22.016 0.512-4.608 1.536-8.704 3.072-13.312 3.072-10.24-12.288-14.336-15.872-4.096-2.56 7.168-3.584 14.848-4.096 23.04v1.536c-10.24 4.096-19.968 8.192-30.208 12.288l1.536-195.584c22.528 40.96 56.832 74.24 58.88 76.288l1.024 1.024c3.584 2.048 259.584 188.928 236.032 398.336z" fill="#5AB75A" /></svg>